<svg xmlns="http://www.w3.org/2000/svg" xmlns:xlink="http://www.w3.org/1999/xlink" width="24" height="24" version="1.1" viewBox="0 0 24 24"><title>Info-Filled</title><desc>Created with Sketch.</desc><defs><path id="path-1" d="M12,21 C7.02943725,21 3,16.9705627 3,12 C3,7.02943725 7.02943725,3 12,3 C16.9705627,3 21,7.02943725 21,12 C21,16.9705627 16.9705627,21 12,21 Z M13,15.1666667 L13,11.8333333 C13,11.373096 12.5522847,11 12,11 C11.4477153,11 11,11.373096 11,11.8333333 L11,15.1666667 C11,15.626904 11.4477153,16 12,16 C12.5522847,16 13,15.626904 13,15.1666667 Z M12,10 C12.5522847,10 13,9.55228475 13,9 C13,8.44771525 12.5522847,8 12,8 C11.4477153,8 11,8.44771525 11,9 C11,9.55228475 11.4477153,10 12,10 Z"/></defs><g id="Info-Filled" fill="none" fill-rule="evenodd" stroke="none" stroke-width="1"><mask id="mask-2" fill="#fff"><use xlink:href="#path-1"/></mask><use id="Combined-Shape" fill="#D6D9DB" fill-rule="nonzero" xlink:href="#path-1"/></g></svg>